<?xml version="1.0" standalone="no"?>
<!DOCTYPE svg PUBLIC "-//W3C//DTD SVG 20010904//EN"
 "http://www.w3.org/TR/2001/REC-SVG-20010904/DTD/svg10.dtd">
<svg version="1.0" xmlns="http://www.w3.org/2000/svg"
 width="512.000000pt" height="512.000000pt" viewBox="0 0 512.000000 512.000000"
 preserveAspectRatio="xMidYMid meet">

<g transform="translate(0.000000,512.000000) scale(0.100000,-0.100000)"
fill="#000000" stroke="none">
<path d="M230 5111 c-87 -27 -165 -95 -204 -180 -21 -46 -21 -49 -21 -876 l0
-830 26 -55 c30 -63 86 -122 144 -153 39 -22 49 -22 573 -25 l532 -3 0 106 0
105 -500 0 -500 0 -31 28 c-29 26 -32 34 -37 105 l-5 77 1281 0 1280 0 3 63
c2 34 2 368 -1 742 l-5 680 -24 47 c-30 61 -89 120 -149 150 l-47 23 -1145 2
c-630 1 -1156 -2 -1170 -6z m2292 -230 l33 -29 3 -611 2 -611 -1175 0 -1175 0
0 593 c0 544 1 595 18 627 9 19 28 40 42 47 20 10 265 13 1122 13 l1098 0 32
-29z"/>
<path d="M1840 3186 c-153 -41 -276 -166 -327 -331 -17 -56 -18 -117 -18
-1040 l0 -980 22 -70 c43 -137 130 -239 253 -299 l65 -31 683 -3 682 -3 0
-109 0 -110 -447 0 c-409 0 -450 -2 -469 -18 -55 -44 -59 -109 -10 -158 l34
-34 973 0 c947 0 975 1 1006 20 41 25 58 79 39 124 -26 63 -8 61 -480 66
l-431 5 0 105 0 105 680 5 c611 4 684 7 723 22 97 39 200 136 246 231 57 118
56 89 56 1123 0 602 -4 971 -10 1005 -33 172 -161 320 -321 370 -58 18 -114
19 -1482 18 -1089 0 -1433 -3 -1467 -13z m2930 -226 c50 -28 103 -93 122 -148
9 -28 13 -216 16 -784 l3 -748 -1601 0 -1600 0 0 748 c1 602 3 754 14 785 30
83 98 150 168 167 18 5 663 7 1433 7 l1400 -2 45 -25z m134 -2005 c-1 -91 -5
-119 -23 -160 -27 -62 -73 -112 -126 -136 -38 -18 -97 -19 -1439 -19 -1020 0
-1409 3 -1437 11 -58 18 -108 65 -140 133 -27 56 -29 70 -29 174 l0 112 1598
-2 1597 -3 -1 -110z"/>
<path d="M3234 926 c-38 -38 -44 -77 -20 -125 30 -58 119 -69 167 -22 47 48
36 137 -22 167 -48 24 -87 18 -125 -20z"/>
<path d="M722 2770 l-244 -5 -24 -28 c-27 -31 -31 -80 -12 -122 24 -54 34 -55
453 -55 l385 0 0 105 0 105 -144 0 c-79 0 -150 1 -158 3 -7 1 -123 0 -256 -3z"/>
</g>
</svg>
