<?xml version="1.0" standalone="no"?>
<!DOCTYPE svg PUBLIC "-//W3C//DTD SVG 20010904//EN"
 "http://www.w3.org/TR/2001/REC-SVG-20010904/DTD/svg10.dtd">
<svg version="1.0" xmlns="http://www.w3.org/2000/svg"
 width="512.000000pt" height="512.000000pt" viewBox="0 0 512.000000 512.000000"
 preserveAspectRatio="xMidYMid meet">

<g transform="translate(0.000000,512.000000) scale(0.100000,-0.100000)"
fill="#000000" stroke="none">
<path d="M2270 5074 c-25 -2 -115 -11 -200 -20 -760 -78 -1368 -342 -1568
-680 -161 -274 -33 -568 349 -801 236 -144 636 -274 1019 -332 252 -37 379
-46 690 -46 502 0 869 52 1255 180 424 139 702 326 815 548 98 194 71 367 -87
552 -245 288 -786 499 -1488 580 -133 16 -674 29 -785 19z"/>
<path d="M431 3468 c-1 -215 3 -367 10 -400 94 -456 910 -819 1927 -857 807
-30 1523 125 1975 426 177 119 306 283 336 431 7 33 11 185 10 400 0 321 -1
343 -15 294 -23 -89 -81 -179 -173 -271 -268 -270 -757 -453 -1436 -538 -201
-25 -809 -25 -1010 0 -556 69 -968 199 -1277 403 -157 104 -297 274 -332 406
-14 49 -15 27 -15 -294z"/>
<path d="M431 2484 c-1 -195 3 -364 9 -395 30 -158 156 -317 358 -452 161
-108 460 -230 722 -295 337 -84 624 -116 1040 -116 416 0 703 32 1040 116 262
65 561 187 722 295 202 135 328 294 358 452 6 31 10 200 9 395 -1 294 -3 335
-13 295 -172 -622 -1634 -1004 -2928 -764 -712 131 -1210 423 -1304 764 -10
40 -12 -1 -13 -295z"/>
<path d="M431 1498 c-1 -215 3 -367 10 -400 40 -193 226 -388 507 -531 307
-157 650 -250 1137 -309 150 -18 800 -18 950 0 487 59 830 152 1137 309 281
143 467 338 507 531 7 33 11 185 10 400 0 321 -1 343 -15 293 -85 -318 -532
-595 -1194 -740 -307 -67 -506 -85 -920 -85 -414 0 -613 18 -920 85 -662 145
-1109 422 -1194 740 -14 50 -15 28 -15 -293z"/>
</g>
</svg>
