<?xml version="1.0" standalone="no"?>
<!DOCTYPE svg PUBLIC "-//W3C//DTD SVG 20010904//EN"
 "http://www.w3.org/TR/2001/REC-SVG-20010904/DTD/svg10.dtd">
<svg version="1.0" xmlns="http://www.w3.org/2000/svg"
 width="256.000000pt" height="256.000000pt" viewBox="0 0 256.000000 256.000000"
 preserveAspectRatio="xMidYMid meet">

<g transform="translate(0.000000,256.000000) scale(0.100000,-0.100000)"
fill="#000000" stroke="none">
<path d="M1055 2540 c-266 -50 -478 -163 -676 -359 -258 -257 -391 -590 -376
-946 14 -342 146 -636 391 -873 347 -336 836 -447 1293 -293 192 64 344 159
494 310 118 118 191 219 255 355 194 410 157 883 -99 1266 -64 96 -241 273
-337 337 -281 188 -626 262 -945 203z m209 -600 c26 -12 158 -136 361 -340
l320 -320 -320 -320 c-324 -324 -367 -360 -433 -360 -38 0 -98 23 -125 48 -49
44 -70 135 -46 199 6 15 101 119 212 231 l202 202 -197 198 c-108 108 -203
211 -212 229 -21 43 -20 106 3 151 46 91 146 126 235 82z"/>
</g>
</svg>
