<?xml version="1.0" standalone="no"?>
<!DOCTYPE svg PUBLIC "-//W3C//DTD SVG 20010904//EN"
 "http://www.w3.org/TR/2001/REC-SVG-20010904/DTD/svg10.dtd">
<svg version="1.0" xmlns="http://www.w3.org/2000/svg"
 width="512.000000pt" height="512.000000pt" viewBox="0 0 512.000000 512.000000"
 preserveAspectRatio="xMidYMid meet">

<g transform="translate(0.000000,512.000000) scale(0.100000,-0.100000)"
fill="#000000" stroke="none">
<path d="M545 4675 c-142 -31 -261 -141 -306 -284 -19 -61 -19 -107 -19 -1831
0 -1724 0 -1770 19 -1831 46 -145 164 -254 311 -285 97 -20 3923 -20 4020 0
147 31 265 140 311 285 19 61 19 107 19 1831 0 1724 0 1770 -19 1831 -46 145
-164 254 -311 285 -94 20 -3933 19 -4025 -1z m735 -620 l0 -215 -320 0 -320 0
0 215 0 215 320 0 320 0 0 -215z m1070 0 l0 -215 -325 0 -325 0 0 215 0 215
325 0 325 0 0 -215z m2130 0 l0 -215 -855 0 -855 0 0 215 0 215 855 0 855 0 0
-215z m0 -1920 l0 -1285 -1920 0 -1920 0 0 1285 0 1285 1920 0 1920 0 0 -1285z"/>
<path d="M1497 2772 l-147 -147 240 -240 c132 -132 240 -244 240 -250 0 -5
-108 -118 -240 -250 l-240 -240 148 -148 147 -147 393 393 392 392 -393 393
-392 392 -148 -148z"/>
<path d="M2780 1710 l0 -210 530 0 530 0 0 210 0 210 -530 0 -530 0 0 -210z"/>
</g>
</svg>
