<?xml version="1.0" standalone="no"?>
<!DOCTYPE svg PUBLIC "-//W3C//DTD SVG 20010904//EN"
 "http://www.w3.org/TR/2001/REC-SVG-20010904/DTD/svg10.dtd">
<svg version="1.0" xmlns="http://www.w3.org/2000/svg"
 width="512.000000pt" height="512.000000pt" viewBox="0 0 512.000000 512.000000"
 preserveAspectRatio="xMidYMid meet">

<g transform="translate(0.000000,512.000000) scale(0.100000,-0.100000)"
fill="#000000" stroke="none">
<path d="M3317 4241 c-754 -108 -810 -118 -833 -140 l-24 -23 0 -665 0 -664
25 -24 24 -25 886 0 887 0 29 29 29 29 0 733 c0 531 -3 742 -12 771 -6 21 -27
52 -45 68 -30 27 -40 30 -96 29 -34 -1 -426 -54 -870 -118z"/>
<path d="M1465 3980 c-351 -51 -634 -96 -653 -104 -17 -9 -41 -30 -52 -48 -19
-32 -20 -52 -20 -556 l0 -523 25 -24 24 -25 671 0 671 0 24 25 25 24 0 630 0
630 -22 25 c-13 14 -34 27 -48 30 -14 2 -304 -36 -645 -84z"/>
<path d="M765 2395 l-25 -24 0 -523 c0 -501 1 -524 20 -555 10 -18 33 -39 50
-48 35 -18 1284 -198 1312 -189 10 3 27 17 38 31 20 25 20 38 20 655 l0 629
-25 24 -24 25 -671 0 -671 0 -24 -25z"/>
<path d="M2485 2395 l-25 -24 0 -666 0 -666 23 -22 c20 -21 87 -32 852 -140
457 -65 844 -117 862 -117 53 0 101 29 123 75 19 40 20 62 20 784 l0 743 -29
29 -29 29 -887 0 -886 0 -24 -25z"/>
</g>
</svg>
